<svg xmlns="http://www.w3.org/2000/svg" width="256" height="256" viewBox="0 0 100 100"><rect width="100" height="100" rx="20" fill="#4338ca"></rect><path d="M21.88 66.16L21.88 66.16Q26.29 66.16 28.09 64.72Q29.89 63.27 29.89 61.47L29.89 61.47Q29.89 59.67 28.45 58.64Q27.01 57.60 24.40 56.70L24.40 56.70L20.62 55.45Q16.66 54.09 13.42 52.70Q10.18 51.30 7.84 49.33Q5.50 47.34 4.19 44.60Q2.89 41.85 2.89 37.89L2.89 37.89Q2.89 30.24 8.78 25.66Q14.68 21.06 25.30 21.06L25.30 21.06Q29.17 21.06 32.50 21.60Q35.83 22.15 38.21 23.27Q40.59 24.40 41.95 26.15Q43.30 27.91 43.30 30.24L43.30 30.24Q43.30 32.59 42.22 34.25Q41.14 35.91 39.61 37.09L39.61 37.09Q37.63 35.82 34.30 34.88Q30.97 33.94 27.01 33.94L27.01 33.94Q22.96 33.94 21.07 35.06Q19.18 36.19 19.18 37.89L19.18 37.89Q19.18 39.24 20.35 40.10Q21.52 40.95 23.86 41.67L23.86 41.67L28.63 43.20Q37.09 45.91 41.63 50.18Q46.18 54.45 46.18 61.66L46.18 61.66Q46.18 65.44 44.65 68.63Q43.12 71.83 40.10 74.12Q37.09 76.41 32.63 77.67Q28.18 78.94 22.42 78.94L22.42 78.94Q18.28 78.94 14.72 78.26Q11.17 77.58 8.51 76.28Q5.86 74.97 4.37 73.04Q2.89 71.11 2.89 68.58L2.89 68.58Q2.89 65.97 4.42 64.13Q5.95 62.28 7.75 61.30L7.75 61.30Q10.27 63.27 13.91 64.72Q17.56 66.16 21.88 66.16ZM95.50 22.77L95.50 22.77Q96.13 23.77 96.62 25.38Q97.11 27.01 97.11 28.89L97.11 28.89Q97.11 32.31 95.63 33.84Q94.14 35.38 91.63 35.38L91.63 35.38L81.45 35.38L81.45 77.22Q80.47 77.50 78.39 77.77Q76.33 78.03 74.16 78.03L74.16 78.03Q69.39 78.03 67.55 76.41Q65.70 74.80 65.70 70.56L65.70 70.56L65.70 35.38L52.12 35.38Q51.48 34.38 50.99 32.77Q50.49 31.14 50.49 29.26L50.49 29.26Q50.49 25.84 51.98 24.30Q53.47 22.77 55.98 22.77L55.98 22.77L95.50 22.77Z" fill="#fff"></path></svg>